<svg width="100" height="100" viewBox="0 0 100 100" fill="none" xmlns="http://www.w3.org/2000/svg">
<g clip-path="url(#clip0_1_39)">
<rect x="100" y="100" width="100" height="100" rx="30" transform="rotate(180 100 100)" fill="#07070B"/>
<path d="M31.242 63.4416C25.976 58.1916 20.8051 52.9932 15.5667 47.8523C14.759 47.0596 14.8524 46.6312 15.6083 45.9108C23.4694 38.4191 31.2969 30.8978 39.1353 23.3861C41.9073 20.7297 44.7118 18.1008 47.435 15.4032C48.0144 14.8292 48.259 14.9023 48.7534 15.4065C50.473 17.1603 52.164 18.9459 54.0077 20.586C54.8005 21.2911 54.541 21.5966 53.9517 22.1494C49.7646 26.0771 45.6047 30.0289 41.4296 33.9673C37.0817 38.0686 32.7578 42.1919 28.3449 46.2339C27.5722 46.9417 28.2025 47.1765 28.529 47.5086C32.5727 51.6217 36.637 55.7178 40.7 59.815C42.6982 61.83 44.6814 63.8581 46.7244 65.8346C47.2126 66.3069 47.2754 66.5623 46.7378 67.007C44.5694 68.8009 42.4301 70.6242 40.2875 72.4303C37.4872 69.6468 34.4011 66.5793 31.242 63.4416Z" fill="white"/>
<path d="M68.5957 35.1081C73.7646 40.5749 78.8394 45.9873 83.9827 51.342C84.7758 52.1676 84.6746 52.6048 83.9056 53.3298C75.9083 60.8693 67.9441 68.4396 59.9692 76C57.1489 78.6736 54.2966 81.3185 51.5244 84.0351C50.9345 84.6132 50.6913 84.5341 50.2063 84.0093C48.519 82.1837 46.8611 80.326 45.0477 78.6149C44.268 77.8791 44.533 77.5707 45.1324 77.0145C49.3909 73.0629 53.6226 69.0861 57.8693 65.1233C62.2917 60.9966 66.6905 56.8469 71.1768 52.7821C71.9625 52.0703 71.3365 51.8191 71.0161 51.4734C67.0485 47.1918 63.0599 42.9272 59.0726 38.6616C57.1117 36.5638 55.1659 34.4527 53.1595 32.3936C52.6801 31.9016 52.6219 31.6389 53.1676 31.1926C55.3686 29.3921 57.541 27.561 59.7163 25.7476C62.4652 28.6462 65.4946 31.8405 68.5957 35.1081Z" fill="white"/>
</g>
<defs>
<clipPath id="clip0_1_39">
<rect width="100" height="100" fill="white" transform="matrix(-1 0 0 -1 100 100)"/>
</clipPath>
</defs>
</svg>
