<svg width="120" height="120" viewBox="0 0 120 120" fill="none" xmlns="http://www.w3.org/2000/svg">
<g clip-path="url(#clip0_10_2)">
<path d="M27.8435 83.0427C18.8161 74.0428 9.95172 65.1311 0.971576 56.3181C-0.413124 54.9592 -0.253062 54.2248 1.04276 52.9899C14.519 40.1469 27.9376 27.2534 41.3749 14.3761C46.1268 9.82225 50.9345 5.31563 55.6029 0.691117C56.5962 -0.292874 57.0155 -0.167472 57.863 0.696791C60.8109 3.70338 63.7097 6.76442 66.8704 9.57592C68.2294 10.7847 67.7846 11.3084 66.7743 12.2561C59.5965 18.9892 52.4652 25.7639 45.3079 32.5153C37.8544 39.5461 30.4421 46.6147 22.8771 53.5438C21.5523 54.7572 22.6328 55.1596 23.1926 55.729C30.1246 62.78 37.092 69.802 44.0572 76.8257C47.4826 80.2799 50.8825 83.7568 54.3847 87.1449C55.2216 87.9547 55.3293 88.3924 54.4077 89.1548C50.6905 92.2301 47.0231 95.3557 43.3501 98.4519C38.5495 93.6802 33.2591 88.4217 27.8435 83.0427Z" fill="white"/>
<path d="M91.8783 34.471C100.739 43.8426 109.439 53.1211 118.256 62.3005C119.616 63.7159 119.442 64.4654 118.124 65.7082C104.414 78.633 90.7613 91.6107 77.09 104.571C72.2552 109.155 67.3656 113.689 62.6132 118.346C61.602 119.337 61.185 119.201 60.3536 118.302C57.4612 115.172 54.619 111.987 51.5103 109.054C50.1737 107.793 50.6281 107.264 51.6555 106.311C58.9557 99.5364 66.2101 92.7189 73.4902 85.9257C81.0714 78.8514 88.6122 71.7376 96.3031 64.7693C97.6499 63.5491 96.5769 63.1185 96.0276 62.5258C89.226 55.1859 82.3884 47.8752 75.5531 40.5628C72.1915 36.9665 68.8559 33.3475 65.4163 29.8177C64.5944 28.9741 64.4947 28.5238 65.4302 27.7587C69.2032 24.6722 72.9274 21.5332 76.6566 18.4245C81.369 23.3935 86.5621 28.8695 91.8783 34.471Z" fill="white"/>
</g>
<defs>
<clipPath id="clip0_10_2">
<rect width="120" height="120" fill="white"/>
</clipPath>
</defs>
</svg>
